HIERARCHY
ROOT Hips
{
	OFFSET 0.000000 0.000000 0.000000
	CHANNELS 6 Xposition Yposition Zposition Yrotation Xrotation Zrotation
	JOINT Chest
	{
		OFFSET 0.000000 -0.009281 11.569106
		CHANNELS 3 Yrotation Xrotation Zrotation
		JOINT Chest2
		{
			OFFSET -0.000000 0.016865 9.269641
			CHANNELS 3 Yrotation Xrotation Zrotation
			JOINT Chest3
			{
				OFFSET -0.000000 0.000001 8.374491
				CHANNELS 3 Yrotation Xrotation Zrotation
				JOINT Chest4
				{
					OFFSET -0.000000 0.000001 8.374493
					CHANNELS 3 Yrotation Xrotation Zrotation
					JOINT Neck
					{
						OFFSET -0.000000 0.000002 12.152554
						CHANNELS 3 Yrotation Xrotation Zrotation
						JOINT Head
						{
							OFFSET -0.000000 0.040101 7.802319
							CHANNELS 3 Yrotation Xrotation Zrotation
							End Site
							{
								OFFSET -0.000000 0.020947 14.853096
							}
						}
					}
					JOINT RightCollar
					{
						OFFSET 2.894404 0.000001 6.791374
						CHANNELS 3 Yrotation Xrotation Zrotation
						JOINT RightShoulder
						{
							OFFSET 13.574684 0.000001 0.000000
							CHANNELS 3 Yrotation Xrotation Zrotation
							JOINT RightElbow
							{
								OFFSET 23.923903 0.000002 0.000000
								CHANNELS 3 Yrotation Xrotation Zrotation
								JOINT RightWrist
								{
									OFFSET 19.846718 0.012767 0.000000
									CHANNELS 3 Yrotation Xrotation Zrotation
									End Site
									{
										OFFSET 14.973145 0.000001 0.000000
									}
								}
							}
						}
					}
					JOINT LeftCollar
					{
						OFFSET -2.894404 0.000001 6.791374
						CHANNELS 3 Yrotation Xrotation Zrotation
						JOINT LeftShoulder
						{
							OFFSET -13.574684 -0.000001 0.000000
							CHANNELS 3 Yrotation Xrotation Zrotation
							JOINT LeftElbow
							{
								OFFSET -23.923903 -0.000002 0.000000
								CHANNELS 3 Yrotation Xrotation Zrotation
								JOINT LeftWrist
								{
									OFFSET -19.846718 0.012763 0.000000
									CHANNELS 3 Yrotation Xrotation Zrotation
									End Site
									{
										OFFSET -14.973145 -0.000001 0.000000
									}
								}
							}
						}
					}
				}
			}
		}
	}
	JOINT RightHip
	{
		OFFSET 9.469263 0.004643 0.045487
		CHANNELS 3 Yrotation Xrotation Zrotation
		JOINT RightKnee
		{
			OFFSET 0.000000 0.002661 -40.478676
			CHANNELS 3 Yrotation Xrotation Zrotation
			JOINT RightAnkle
			{
				OFFSET 0.000000 0.049106 -35.224068
				CHANNELS 3 Yrotation Xrotation Zrotation
				JOINT RightToe
				{
					OFFSET -0.000001 12.539529 -6.151390
					CHANNELS 3 Yrotation Xrotation Zrotation
					End Site
					{
						OFFSET -0.000001 5.044994 -1.291870
					}
				}
			}
		}
	}
	JOINT LeftHip
	{
		OFFSET -9.469263 0.004641 0.045487
		CHANNELS 3 Yrotation Xrotation Zrotation
		JOINT LeftKnee
		{
			OFFSET 0.000000 0.002661 -40.478676
			CHANNELS 3 Yrotation Xrotation Zrotation
			JOINT LeftAnkle
			{
				OFFSET 0.000000 0.049106 -35.224068
				CHANNELS 3 Yrotation Xrotation Zrotation
				JOINT LeftToe
				{
					OFFSET -0.000001 12.539529 -6.151390
					CHANNELS 3 Yrotation Xrotation Zrotation
					End Site
					{
						OFFSET -0.000001 5.044994 -1.291870
					}
				}
			}
		}
	}
}
MOTION
Frames: 14
Frame Time: 0.016667
35.761417 -3.252769 81.653885 -1.192379 -2.169024 -83.436676 1.133641 -3.288453 4.262441 0.711231 -1.551293 1.957144 0.711231 -1.551293 1.957145 0.538367 -1.161207 1.469576 5.339714 -14.233797 -10.679545 5.890275 9.748179 -18.008675 11.310272 -0.883857 -0.585773 58.783169 -4.579139 35.143512 -3.702848 -26.024602 25.518260 -7.916497 -9.199553 -4.052979 -5.687643 1.735909 4.876918 -81.686023 18.277269 9.971552 8.799607 19.475805 7.449501 8.915669 6.255708 -14.202936 7.041177 -10.671151 -10.020500 8.012843 -19.104814 -6.249968 9.450473 0.372358 4.264963 -19.865887 27.607486 -4.912453 -7.305555 8.934939 0.709183 -4.119632 -1.305802 10.657557 3.165681 -9.029779 3.800789 -1.925603 1.412391 0.183681 
36.810959 -2.998279 81.756996 -1.471301 -1.711676 -83.649969 1.101968 -3.336235 4.295240 0.790819 -1.550486 1.892095 0.790819 -1.550488 1.892096 0.597885 -1.160432 1.420995 4.845297 -14.233342 -10.507629 5.029614 9.706680 -17.879072 11.286920 -0.858066 -0.505014 59.899994 -4.130025 34.995267 -2.773662 -24.009626 26.596017 -8.515753 -8.474642 -2.388480 -5.708059 1.718152 5.067986 -81.285979 18.620702 10.494832 8.865473 19.346588 7.466097 8.566242 5.970215 -13.455973 5.722955 -10.601347 -10.280029 8.463111 -21.206634 -7.055731 11.296522 -1.487503 5.472865 -22.206854 30.613891 -5.968906 -7.811978 8.032881 1.028468 -4.133353 -1.613666 10.343612 4.282328 -8.450891 3.873383 -2.424591 1.289682 0.247475 
37.783714 -2.741218 81.812180 -1.771967 -1.159977 -83.776075 0.964566 -3.389384 4.223268 0.883355 -1.549685 1.810341 0.883355 -1.549686 1.810342 0.667075 -1.159661 1.359917 4.320501 -14.237965 -10.314440 4.120729 9.652995 -17.720818 11.247312 -0.822428 -0.421805 61.306945 -3.576775 34.605734 -1.677420 -21.745072 27.648607 -9.308433 -7.297249 -0.188211 -5.746531 1.666732 5.252219 -80.840370 18.959678 10.960802 8.866626 19.007066 7.426681 8.415351 5.704953 -13.021213 4.038381 -10.235045 -10.597689 9.115157 -23.892015 -8.452295 13.539419 -3.767993 7.349620 -25.346663 33.818418 -7.571282 -8.513018 7.068010 1.474605 -4.120869 -1.898443 9.940163 5.251796 -7.971013 3.653082 -2.606137 1.347695 0.603390 
38.738243 -2.374845 81.802361 -2.207001 -0.400260 -83.935457 0.659941 -3.589784 4.181561 0.970970 -1.556137 1.714360 0.970970 -1.556137 1.714361 0.732556 -1.164393 1.288169 3.770201 -14.233518 -10.107674 3.168252 9.613301 -17.547243 11.166514 -0.882615 -0.343970 62.922346 -2.866095 34.087825 -0.271251 -19.214926 28.692542 -10.317460 -5.646882 2.455563 -5.770511 1.509713 5.424603 -80.483896 19.300288 11.247732 8.857776 18.573055 7.349004 8.449534 5.506128 -12.968408 1.922204 -9.816759 -10.912029 9.731636 -27.046859 -9.909396 16.262231 -6.273419 9.463668 -29.272190 36.978521 -9.566706 -9.417183 6.004916 2.112327 -4.074579 -2.201865 9.577767 6.098921 -7.486329 3.401696 -2.617650 1.442848 0.891484 
39.644657 -1.977936 81.721169 -2.585566 0.449385 -84.015589 0.321917 -3.767136 4.071129 1.045250 -1.562247 1.608430 1.045251 -1.562247 1.608429 0.788009 -1.168949 1.208924 3.208867 -14.217864 -9.896476 2.195471 9.592546 -17.370126 11.002778 -1.035813 -0.300689 64.664673 -2.075026 33.443062 1.498167 -16.416209 29.786363 -11.451014 -3.563718 5.402613 -5.828909 1.353058 5.559060 -80.175745 19.544363 11.424747 8.846804 18.205763 7.252286 8.616810 5.405202 -13.223606 -0.468191 -9.300435 -11.572214 10.221804 -30.365139 -10.640082 19.266466 -9.015851 11.404066 -33.938619 39.640932 -11.949030 -10.483219 4.990469 2.684443 -4.012843 -2.517433 9.405834 6.716228 -6.846244 3.015475 -2.360097 1.507991 1.272921 
40.543549 -1.661356 81.594566 -2.837411 0.980637 -83.930881 0.354551 -3.839531 3.797423 1.108129 -1.557964 1.484306 1.108129 -1.557965 1.484305 0.834836 -1.165795 1.115990 2.642832 -14.204289 -9.665654 1.221477 9.568140 -17.157614 10.783416 -1.220657 -0.238063 66.417456 -1.313896 32.612992 3.521016 -13.448666 30.985614 -12.532553 -1.157705 8.626652 -5.933350 1.158652 5.677768 -79.918233 19.667740 11.456173 8.785397 18.033113 7.124382 8.882249 5.414539 -13.644442 -2.724527 -8.567478 -12.760431 10.508675 -33.879644 -10.719949 22.544503 -11.478746 13.535473 -27.606875 33.659951 -7.418184 -11.170641 4.137811 3.096192 -4.049196 -2.866845 9.394041 7.248301 -5.698994 2.769967 -2.046962 1.154072 1.456792 
41.482071 -1.548798 81.478004 -2.924199 0.912442 -83.617853 1.017503 -3.715390 3.291234 1.158156 -1.540351 1.351428 1.158156 -1.540351 1.351429 0.871977 -1.152714 1.016434 2.088680 -14.208259 -9.419009 0.277804 9.513552 -16.909043 10.527134 -1.383911 -0.158734 68.141171 -0.670802 31.607032 5.695018 -10.403013 32.248745 -13.563237 1.394392 12.079004 -6.092834 1.031488 5.788603 -79.607002 19.701426 11.467314 8.663855 18.005480 6.951930 9.152420 5.581128 -14.131380 -4.443409 -7.408744 -14.068523 10.514978 -37.616061 -10.501497 25.910548 -13.855121 16.233949 -22.551674 26.848873 -4.475323 -11.168673 3.434294 3.206344 -4.225880 -3.216570 9.462759 7.799273 -3.957629 2.921391 -1.824180 0.294225 1.287394 
42.458839 -1.497900 81.393295 -3.006196 0.706003 -83.380853 1.818364 -3.593617 2.824087 1.190664 -1.520239 1.216124 1.190664 -1.520239 1.216124 0.895976 -1.137820 0.915004 1.554712 -14.218186 -9.148689 -0.618395 9.452388 -16.607219 10.287481 -1.485190 -0.057069 69.790210 -0.220033 30.467691 7.948583 -7.373135 33.514953 -14.702993 4.019693 15.799153 -6.311734 1.072479 5.900428 -79.125378 19.749890 11.530892 8.472652 17.982573 6.748400 9.341463 5.924423 -14.635555 -5.900474 -5.972157 -14.832232 10.193231 -41.423994 -9.763954 29.243352 -16.553810 18.662141 -18.264588 20.307517 -2.850624 -10.976108 2.729407 3.272591 -4.444206 -3.507645 9.594784 8.375223 -2.269295 3.351041 -1.730732 -0.496574 0.806631 
43.426979 -1.397109 81.328590 -3.114013 0.751813 -83.215330 2.331267 -3.580919 2.385221 1.198901 -1.504889 1.092105 1.198901 -1.504889 1.092105 0.901817 -1.126534 0.821989 1.054886 -14.210060 -8.858078 -1.445353 9.430967 -16.255323 10.134615 -1.436016 0.020063 71.345574 0.030311 29.238725 10.107219 -4.607973 34.630688 -16.075946 6.918669 20.061937 -6.547867 1.321500 5.971096 -78.501167 19.815898 11.614920 8.257893 17.977416 6.532723 9.470411 6.366468 -15.138732 -7.240768 -4.356786 -14.691315 9.858630 -45.120875 -8.629582 32.457223 -19.392084 19.656373 -14.181900 14.898516 -1.779342 -11.061245 1.984510 3.221967 -4.641239 -3.743622 9.837953 8.821334 -0.984535 3.788694 -1.605600 -0.873771 0.426234 
44.319199 -1.242145 81.272499 -3.122655 0.853143 -83.129522 2.722130 -3.511540 1.969178 1.196471 -1.493642 0.972668 1.196472 -1.493642 0.972669 0.899684 -1.118337 0.732388 0.563786 -14.189163 -8.527898 -2.242781 9.438630 -15.826749 10.035095 -1.346781 0.070868 72.820765 0.146769 28.044311 12.002243 -2.288714 35.522554 -17.746571 10.299415 24.859729 -6.801911 1.630463 6.003757 -77.834384 19.902116 11.644586 7.981877 18.039643 6.255484 9.641804 6.864306 -15.640322 -8.192147 -2.349170 -13.539869 9.945736 -48.559968 -7.362947 36.023907 -21.885420 18.889838 -10.570152 10.556662 -1.079329 -11.281885 1.377308 3.109742 -4.752029 -3.954119 10.083062 9.195381 0.183005 4.217063 -1.496429 -1.161285 0.108394 
45.136509 -1.049995 81.218445 -3.120602 0.942382 -83.133272 3.077945 -3.426546 1.582518 1.191478 -1.480655 0.852220 1.191478 -1.480656 0.852223 0.895626 -1.108838 0.642019 0.056562 -14.172397 -8.150624 -3.052202 9.442178 -15.315460 9.959897 -1.343326 0.108918 74.221794 0.184911 26.909907 13.670566 -0.339765 36.217068 -19.868805 14.001067 29.623965 -7.019243 1.784919 6.071426 -77.325378 19.920114 11.478518 7.656604 18.169003 5.885015 9.927380 7.392608 -16.130923 -8.653109 -0.029182 -11.666102 9.881123 -51.808672 -5.547522 39.589375 -22.736971 17.217322 -7.192044 6.943417 -0.712253 -11.567111 0.859748 2.951570 -4.772847 -4.173661 10.319883 9.549725 1.198832 4.759675 -1.439689 -1.339266 -0.214535 
45.911083 -0.777974 81.160126 -3.225347 1.278623 -83.121790 3.175802 -3.481944 1.160935 1.177796 -1.473709 0.726150 1.177797 -1.473710 0.726152 0.885051 -1.103889 0.547428 -0.454677 -14.143315 -7.743193 -3.859415 9.472193 -14.750219 9.905374 -1.361279 0.124416 75.584724 0.233711 25.778925 15.159986 1.287492 36.739512 -22.406893 17.745603 33.691021 -7.137999 1.717284 6.171402 -77.143858 19.776394 11.013461 7.323142 18.309106 5.433184 10.335633 7.926521 -16.657460 -8.946304 2.293221 -9.465610 9.026947 -55.031247 -2.824050 41.866037 -20.911106 15.584726 -3.712112 4.107640 -0.281555 -12.098089 0.255087 2.743300 -4.786767 -4.413708 10.538543 9.816967 1.948303 5.198889 -1.353386 -1.269139 -0.403401 
46.614517 -0.494712 81.089493 -3.241393 1.578581 -83.098581 3.275599 -3.495962 0.774687 1.157574 -1.472191 0.585719 1.157574 -1.472191 0.585719 0.869545 -1.103040 0.442056 -0.946420 -14.085463 -7.321549 -4.628461 9.560667 -14.153789 9.872847 -1.364280 0.152491 76.912274 0.311125 24.635273 16.339914 2.667209 36.998008 -25.112633 21.514966 37.138836 -7.199438 1.532791 6.239192 -77.205781 19.413713 10.308157 6.970766 18.370714 4.952367 10.803886 8.478280 -17.241347 -8.987048 4.727013 -7.105792 8.372758 -57.939115 -0.392293 41.557412 -17.212369 13.918680 -0.178963 2.254291 0.644621 -12.605916 -0.200182 2.335034 -4.821414 -4.662412 10.839990 10.086962 2.632891 5.615239 -1.285612 -1.186081 -0.551325 
47.234558 -0.215473 81.008774 -3.091171 1.757958 -83.085119 3.447716 -3.369700 0.458759 1.154815 -1.463565 0.413272 1.154815 -1.463565 0.413271 0.867054 -1.096899 0.312705 -1.424911 -14.021227 -6.878992 -5.365508 9.666289 -13.513789 9.764739 -1.400035 0.255489 78.034467 0.415205 23.513367 17.450795 4.018521 36.898400 -27.596712 25.330615 40.330413 -7.328214 1.355436 6.238409 -77.296841 18.881377 9.550881 6.583297 18.305505 4.493435 11.239166 8.994431 -17.890723 -8.789274 7.340443 -4.747238 8.283350 -60.342973 0.609737 39.383475 -13.270388 11.872920 2.995777 1.240397 1.829490 -13.018193 -0.424205 1.812384 -4.857064 -4.910015 11.226225 10.375005 3.347388 5.994183 -1.246675 -1.187701 -0.692515 
